HIERARCHY
ROOT Hips
{
	OFFSET -0.001795 -0.223333 0.028219
	CHANNELS 6 Xposition Yposition Zposition Zrotation Yrotation Xrotation 
	JOINT LeftUpLeg
	{
		OFFSET 0.069520 -0.091406 -0.006815
		CHANNELS 3 Zrotation Yrotation Xrotation
		JOINT LeftLeg
		{
			OFFSET 0.034277 -0.375199 -0.004496
			CHANNELS 3 Zrotation Yrotation Xrotation
			JOINT LeftFoot
			{
				OFFSET -0.013596 -0.397961 -0.043693
				CHANNELS 3 Zrotation Yrotation Xrotation
				JOINT LeftToe
				{
					OFFSET 0.026358 -0.055791 0.119288
					CHANNELS 3 Zrotation Yrotation Xrotation
					End Site
					{
						OFFSET 0.000000 0.000000 0.000000
					}
				}
			}
		}
	}
	JOINT RightUpLeg
	{
		OFFSET -0.067670 -0.090522 -0.004320
		CHANNELS 3 Zrotation Yrotation Xrotation
		JOINT RightLeg
		{
			OFFSET -0.038290 -0.382569 -0.008850
			CHANNELS 3 Zrotation Yrotation Xrotation
			JOINT RightFoot
			{
				OFFSET 0.015774 -0.398415 -0.042312
				CHANNELS 3 Zrotation Yrotation Xrotation
				JOINT RightToe
				{
					OFFSET -0.025372 -0.048144 0.123348
					CHANNELS 3 Zrotation Yrotation Xrotation
					End Site
					{
						OFFSET 0.000000 0.000000 0.000000
					}
				}
			}
		}
	}
	JOINT Spine
	{
		OFFSET -0.002533 0.108963 -0.026696
		CHANNELS 3 Zrotation Yrotation Xrotation
		JOINT Spine1
		{
			OFFSET 0.005487 0.135180 0.001092
			CHANNELS 3 Zrotation Yrotation Xrotation
			JOINT Spine2
			{
				OFFSET 0.001457 0.052922 0.025425
				CHANNELS 3 Zrotation Yrotation Xrotation
				JOINT Neck
				{
					OFFSET -0.002778 0.213870 -0.042857
					CHANNELS 3 Zrotation Yrotation Xrotation
					JOINT Head
					{
						OFFSET 0.005152 0.064970 0.051349
						CHANNELS 3 Zrotation Yrotation Xrotation
						End Site
						{
							OFFSET 0.000000 0.000000 0.000000
						}
					}
				}
				JOINT LeftShoulder
				{
					OFFSET 0.078845 0.121749 -0.034090
					CHANNELS 3 Zrotation Yrotation Xrotation
					JOINT LeftArm
					{
						OFFSET 0.090977 0.030469 -0.008868
						CHANNELS 3 Zrotation Yrotation Xrotation
						JOINT LeftForeArm
						{
							OFFSET 0.259612 -0.012772 -0.027456
							CHANNELS 3 Zrotation Yrotation Xrotation
							JOINT LeftHand
							{
								OFFSET 0.249234 0.008986 -0.001171
								CHANNELS 3 Zrotation Yrotation Xrotation
								End Site
								{
									OFFSET 0.000000 0.000000 0.000000
								}
							}
						}
					}
				}
				JOINT RightShoulder
				{
					OFFSET -0.081759 0.118833 -0.038615
					CHANNELS 3 Zrotation Yrotation Xrotation
					JOINT RightArm
					{
						OFFSET -0.096012 0.032551 -0.009143
						CHANNELS 3 Zrotation Yrotation Xrotation
						JOINT RightForeArm
						{
							OFFSET -0.253742 -0.013329 -0.021401
							CHANNELS 3 Zrotation Yrotation Xrotation
							JOINT RightHand
							{
								OFFSET -0.255298 0.007772 -0.005559
								CHANNELS 3 Zrotation Yrotation Xrotation
								End Site
								{
									OFFSET 0.000000 0.000000 0.000000
								}
							}
						}
					}
				}
			}
		}
	}
}
MOTION
Frames: 9
Frame Time: 0.050000
0.000000 0.928894 0.000000 -0.664257 -3.582557 1.845481 11.861258 0.162576 -14.479366 -2.896430 0.307994 10.443640 6.995799 15.883759 18.393494 0.000000 0.000000 0.000000 -3.126687 0.185875 -1.077353 0.830585 0.151734 6.495482 -0.382159 -2.285159 2.509297 0.000000 0.000000 0.000000 6.953093 -0.555977 4.629725 -3.263078 1.518933 -2.287285 -3.019923 2.531400 6.897871 5.653098 -1.563258 -21.000701 0.000000 0.000000 0.000000 -23.779174 -18.658668 8.537446 -50.805343 -19.131158 1.900645 -17.498769 -44.410246 8.956691 0.000000 0.000000 0.000000 19.572312 5.976971 1.836757 53.631101 11.202557 -0.564974 47.581821 56.848385 29.273487 0.000000 0.000000 0.000000 
0.021842 0.928544 0.009690 -1.551719 -2.884982 2.519397 11.222957 0.018453 -13.463017 -2.700721 0.258566 8.175937 7.219919 16.140269 15.876156 0.000000 0.000000 0.000000 -3.202019 0.169740 -0.807728 0.203033 0.218963 5.894655 -0.385914 -2.936228 3.925795 0.000000 0.000000 0.000000 7.185204 -0.566594 4.401522 -2.539738 1.184461 -3.187532 -3.317407 1.507403 7.743211 7.218299 -2.156900 -23.663272 0.000000 0.000000 0.000000 -25.095244 -16.607444 7.665121 -49.070817 -20.123671 2.059615 -22.214283 -45.056918 11.246229 0.000000 0.000000 0.000000 19.221272 6.333368 1.894291 54.815766 10.011057 -1.130829 52.886910 56.244900 32.065106 0.000000 0.000000 0.000000 
0.045294 0.926677 0.018533 -1.811237 -2.630411 1.945121 9.758131 -0.140455 -13.492423 -2.473418 0.198843 10.195734 7.618638 16.605293 13.038587 0.000000 0.000000 0.000000 -4.010571 0.145822 -0.178540 -0.636710 0.394724 6.874450 -0.393600 -3.261302 4.643736 0.000000 0.000000 0.000000 7.546796 -0.501823 3.746155 -1.942528 0.925273 -1.833758 -4.621704 2.185312 8.216271 8.744860 -3.046767 -22.590227 0.000000 0.000000 0.000000 -22.135620 -18.346209 8.096824 -49.789603 -20.893313 2.472426 -21.344352 -44.530211 10.582764 0.000000 0.000000 0.000000 20.787481 6.760039 2.444948 53.860512 10.581728 -1.023537 50.860383 56.013770 31.042764 0.000000 0.000000 0.000000 
0.069176 0.924818 0.027142 -2.036898 -2.665770 2.087240 8.985708 -0.227931 -13.513871 -3.564950 0.428557 10.915584 8.135056 17.298574 10.495638 0.000000 0.000000 0.000000 -4.820626 0.251698 -1.535318 -1.415632 0.709314 10.097522 -0.557001 -3.857760 5.175390 0.000000 0.000000 0.000000 7.242448 -0.430609 3.155909 -2.242981 1.065616 -1.240727 -4.269028 2.605083 8.371687 8.983583 -2.931274 -23.859971 0.000000 0.000000 0.000000 -22.358720 -18.827155 8.292730 -49.959946 -21.610903 2.816507 -20.967846 -45.034036 10.517293 0.000000 0.000000 0.000000 20.963393 7.099405 2.745110 54.004084 9.836277 -1.387861 53.206766 55.942816 32.589522 0.000000 0.000000 0.000000 
0.091512 0.926091 0.035094 -2.075771 -1.817217 2.214217 7.338733 -0.433295 -13.374121 -3.345689 0.360680 10.962251 8.011454 17.092662 9.013315 0.000000 0.000000 0.000000 -5.775940 0.299556 -2.255315 -1.532022 0.842421 12.137240 -1.076153 -5.802585 7.495990 0.000000 0.000000 0.000000 7.225125 -0.406320 2.860153 -2.096882 1.000827 -0.278031 -4.585739 2.331160 7.572587 9.540677 -3.253300 -23.333332 0.000000 0.000000 0.000000 -21.165496 -19.363850 8.372009 -50.648267 -21.665469 2.998966 -19.551745 -45.910820 10.055504 0.000000 0.000000 0.000000 22.264840 7.556391 3.084787 53.884989 8.967704 -1.723225 53.387203 55.512149 32.415615 0.000000 0.000000 0.000000 
0.110294 0.927947 0.042881 -2.148894 -1.081158 2.264447 6.345787 -0.540326 -12.842095 -3.758272 0.427318 10.540200 7.800776 16.733450 8.078270 0.000000 0.000000 0.000000 -6.458782 0.329518 -2.945152 -0.757263 0.823708 15.252233 -2.560471 -8.911596 7.819466 0.000000 0.000000 0.000000 7.066117 -0.422078 3.025274 -2.393800 1.140713 -0.544913 -4.446799 2.389855 7.782770 9.486699 -3.197924 -23.230462 0.000000 0.000000 0.000000 -20.501085 -19.767983 8.418992 -50.112527 -21.519993 2.892591 -20.944920 -49.483821 11.536945 0.000000 0.000000 0.000000 23.352789 8.015082 3.527404 54.532265 8.766205 -1.882105 55.705765 55.053703 33.725870 0.000000 0.000000 0.000000 
0.125754 0.931009 0.050437 -2.497559 -1.136450 2.291255 4.976155 -0.618360 -11.627088 -2.560900 0.192976 9.254988 7.857664 16.813094 7.855577 0.000000 0.000000 0.000000 -6.634554 0.394823 -4.436023 0.300415 0.715292 18.674242 -4.322996 -12.841196 9.776268 0.000000 0.000000 0.000000 6.730006 -0.441321 3.349483 -2.770649 1.319484 -0.315948 -4.092252 2.719288 7.339681 9.645997 -3.279912 -22.975136 0.000000 0.000000 0.000000 -20.045357 -19.191986 7.954775 -49.543358 -21.799822 3.012741 -23.443205 -52.258850 13.465142 0.000000 0.000000 0.000000 23.344221 8.364740 3.813176 55.900372 9.125845 -1.698710 59.710610 55.127737 36.467028 0.000000 0.000000 0.000000 
0.138161 0.933636 0.057007 -2.956181 -1.104159 2.069343 4.391518 -0.617047 -10.633671 -2.152541 0.119739 8.691568 7.831229 16.760723 7.737749 0.000000 0.000000 0.000000 -6.178446 0.428930 -5.183594 1.205253 0.558754 21.309922 -6.542780 -17.149458 11.026350 0.000000 0.000000 0.000000 6.333172 -0.491125 4.089289 -3.013620 1.434276 -0.448945 -3.703809 2.774991 7.016134 9.715082 -3.293892 -23.027196 0.000000 0.000000 0.000000 -18.778122 -19.160722 7.818573 -49.185382 -22.156832 3.137693 -26.354945 -55.544074 16.007172 0.000000 0.000000 0.000000 23.437804 8.941365 4.160417 56.855375 10.238234 -1.136201 64.567985 54.884643 39.531208 0.000000 0.000000 0.000000 
0.147876 0.935548 0.062227 -3.342021 -1.243137 2.117626 4.292383 -0.606520 -10.318141 -2.403104 0.169557 8.673109 7.893703 16.862683 7.757451 0.000000 0.000000 0.000000 -5.411112 0.500205 -6.264089 1.682627 0.475654 22.923860 -8.015486 -19.830476 11.120923 0.000000 0.000000 0.000000 5.786046 -0.516344 4.653143 -3.248065 1.538508 -0.993590 -3.047676 2.953017 7.051558 9.582167 -3.166890 -23.362492 0.000000 0.000000 0.000000 -17.899099 -19.290994 7.830446 -49.549969 -22.930949 3.480124 -29.199031 -58.219464 18.580834 0.000000 0.000000 0.000000 23.037432 9.831286 4.676480 57.675293 12.021893 -0.243750 69.774750 55.817244 43.989772 0.000000 0.000000 0.000000 
